<?xml version="1.0" encoding="utf-8"?>
<svg version="1.1" xmlns="http://www.w3.org/2000/svg" xmlns:xlink="http://www.w3.org/1999/xlink" x="0px" y="0px"
	 viewBox="0 0 3710 3710" style="enable-background:new 0 0 3710 3710;" xml:space="preserve">
<g id="Illustration">
	<g>
		<path style="fill:url(#SVGID_1_);" d="M2920.499,2860.885c-56.964,59.099-110.863,97.212-153.448,127.323
			c-500.573,353.955-1092.884,250.779-1218.767,225.582c-185.889-37.207-545.209-109.128-804.991-410.193
			c-393.029-455.486-331.828-1173.091-26.969-1646.793c55.764-86.648,350.323-567.565,949.013-644.689
			c362.321-46.674,784.671,47.463,1090.525,299.989C3397.878,1342.181,3352.174,2413.028,2920.499,2860.885z"/>
		<g>
			
				<ellipse transform="matrix(0.0439 -0.999 0.999 0.0439 -45.4127 3735.4028)" style="fill:#7D97F4;" cx="1928.783" cy="1891.427" rx="1180.062" ry="1273.76"/>
			<ellipse style="opacity:0.18;fill:#FFFFFF;" cx="1859.845" cy="1806.287" rx="999.507" ry="944.216"/>
			<g style="opacity:0.68;">
				<path style="fill:#FFFFFF;" d="M2252.81,1897.125c-0.304,208.064-14.526,416.548-51.036,621.664
					c-9.245,51.237-19.969,102.228-32.753,152.732c-12.822,50.485-27.631,100.527-45.767,149.448
					c-9.097,24.443-19.037,48.601-30.225,72.212c-11.199,23.596-23.629,46.683-38.071,68.577
					c-14.498,21.796-30.943,42.667-51.204,59.815c-10.128,8.519-21.242,16.066-33.452,21.593
					c-12.185,5.49-25.488,8.965-38.987,9.213c-13.484,0.4-26.985-2.256-39.408-7.265c-12.472-4.964-23.854-12.17-34.224-20.405
					c-20.743-16.61-37.549-37.25-52.308-58.873c-14.725-21.718-27.3-44.734-38.683-68.244
					c-11.336-23.542-21.417-47.643-30.605-72.054c-18.366-48.836-33.323-98.839-46.259-149.292
					c-12.915-50.47-23.746-101.438-33.07-152.66c-18.606-102.463-31.274-205.915-39.801-309.647
					c-8.463-103.75-12.668-207.831-13.127-311.924c-0.215-52.04,1.089-104.074,2.909-156.076
					c1.897-52.001,4.711-103.969,8.489-155.869c7.595-103.786,18.992-207.344,35.984-310.054
					c8.525-51.342,18.474-102.468,30.45-153.14c12.009-50.656,25.969-100.907,43.299-150.066c8.71-24.558,18.236-48.851,29.1-72.571
					c10.848-23.715,22.991-46.91,37.26-68.833c14.302-21.828,30.744-42.656,51.201-59.32c10.228-8.258,21.49-15.441,33.826-20.309
					c12.284-4.93,25.61-7.435,38.871-6.939c13.27,0.375,26.348,3.707,38.422,9.033c12.09,5.357,23.204,12.639,33.411,20.898
					c20.415,16.621,37.322,36.953,52.319,58.308c14.948,21.448,27.984,44.137,39.754,67.405
					c11.798,23.266,22.307,47.148,32.009,71.33c19.323,48.41,35.27,98.078,49.154,148.258
					c13.835,50.204,25.542,100.969,35.667,152.03C2236.013,1480.525,2252.263,1689.035,2252.81,1897.125z M2240.157,1897.125
					c0.152-103.742-3.829-207.509-12.49-310.891c-8.568-103.375-21.544-206.447-40.81-308.376
					c-9.63-50.956-20.839-101.624-34.165-151.729c-13.372-50.082-28.802-99.652-47.576-147.941
					c-9.428-24.122-19.656-47.938-31.152-71.121c-11.47-23.188-24.185-45.782-38.763-67.103
					c-14.622-21.228-31.114-41.394-50.917-57.81c-9.9-8.156-20.648-15.329-32.286-20.609c-11.627-5.22-24.156-8.628-36.896-8.963
					c-12.732-0.413-25.455,2.133-37.234,6.968c-11.821,4.786-22.667,11.829-32.551,19.958
					c-19.773,16.396-35.783,37.005-49.698,58.674c-13.887,21.763-25.712,44.839-36.258,68.453
					c-10.563,23.621-19.808,47.835-28.246,72.32c-16.786,49.017-30.236,99.159-41.74,149.709
					c-11.473,50.568-20.929,101.594-28.966,152.836c-16.014,102.508-26.449,205.856-33.093,309.398
					c-6.689,103.555-9.141,207.349-8.963,311.102c-0.207,103.739,3.333,207.504,11.114,310.956
					c7.843,103.436,19.817,206.61,37.704,308.772c8.963,51.069,19.427,101.88,31.957,152.169
					c12.551,50.272,27.109,100.075,45.023,148.635c8.96,24.272,18.801,48.214,29.861,71.561
					c11.104,23.31,23.373,46.092,37.684,67.486c14.331,21.301,30.641,41.517,50.445,57.569c9.895,7.962,20.674,14.862,32.344,19.587
					c11.633,4.742,24.132,7.365,36.648,6.947c12.516-0.312,24.848-3.609,36.282-8.844c11.449-5.271,21.996-12.513,31.676-20.764
					c19.372-16.602,35.332-37.069,49.412-58.553c27.977-43.296,48.732-91.056,66.545-139.569
					c17.674-48.65,32.074-98.493,44.499-148.796c12.389-50.323,22.729-101.157,31.606-152.24
					c17.749-102.185,29.58-205.371,37.433-308.808C2236.519,2104.661,2240.186,2000.886,2240.157,1897.125z"/>
				<path style="fill:#FFFFFF;" d="M2777.656,1897.125c-0.681,133.895-17.851,267.855-53.655,396.982
					c-36.395,128.839-91.246,252.821-165.798,364.146c-37.28,55.604-79.52,107.946-126.727,155.443
					c-47.191,47.478-99.373,90.116-156.055,125.819c-56.736,35.559-118.015,64.028-182.16,83.349
					c-64.111,19.367-131.039,29.479-198.034,29.565c-66.993-0.036-133.938-10.099-198.075-29.422
					c-64.176-19.277-125.494-47.708-182.278-83.24c-56.731-35.67-108.977-78.279-156.232-125.741
					c-47.271-47.479-89.579-99.813-126.927-155.417c-74.677-111.336-129.624-235.363-166.157-364.255
					c-36.073-129.154-53.198-263.252-53.753-397.229c0.328-67.011,4.789-133.992,13.643-200.407
					c8.896-66.404,22.287-132.224,40.324-196.764c36.609-128.849,91.624-252.807,166.342-364.049
					c37.359-55.559,79.675-107.846,126.942-155.275c47.253-47.401,99.469-89.977,156.191-125.556
					c56.771-35.456,118.077-63.714,182.16-82.985c64.042-19.346,130.897-29.445,197.82-29.529
					c66.923,0.13,133.763,10.277,197.779,29.662c64.057,19.313,125.321,47.618,182.041,83.104
					c56.673,35.613,108.825,78.217,156.016,125.636c47.202,47.445,89.448,99.74,126.74,155.301
					c74.592,111.23,129.516,235.144,165.983,363.94C2759.657,1629.292,2776.902,1763.232,2777.656,1897.125z M2763.152,1897.125
					c-0.248-132.645-16.827-265.422-51.879-393.45c-35.285-127.82-88.415-251.179-161.461-362.095
					c-36.502-55.401-77.952-107.614-124.366-155.068c-46.428-47.383-97.713-90.224-153.767-125.85
					c-56.119-35.435-116.722-63.931-180.25-83.221c-63.495-19.311-129.79-29.458-196.201-29.67
					c-66.411,0.258-132.691,10.451-196.16,29.802c-63.502,19.333-124.061,47.876-180.131,83.342
					c-56.003,35.659-107.227,78.529-153.59,125.928c-46.35,47.471-87.731,99.693-124.165,155.094
					c-72.92,110.905-125.958,234.218-161.1,361.988c-17.488,63.962-30.181,129.183-38.767,194.898
					c-8.599,65.724-12.849,132.004-13.016,198.303c0.201,66.3,4.485,132.573,13.117,198.289
					c8.62,65.705,21.357,130.912,38.879,194.853c35.218,127.727,88.327,250.97,161.287,361.781
					c36.447,55.36,77.833,107.534,124.177,154.952c46.365,47.341,97.558,90.178,153.553,125.746
					c56.056,35.391,116.603,63.76,180.014,83.087c63.375,19.374,129.565,29.603,195.904,29.91
					c66.339-0.258,132.545-10.437,195.948-29.766c63.438-19.284,124.027-47.617,180.131-82.977
					c56.044-35.538,107.299-78.344,153.728-125.669c46.409-47.401,87.864-99.567,124.379-154.926
					c73.083-110.823,126.287-234.112,161.644-361.891C2746.177,2162.528,2762.831,2029.771,2763.152,1897.125z"/>
				<path style="fill:#FFFFFF;" d="M863.664,1439.89l265.478-1.755l265.479-1.005l530.956-0.805l530.958,0.886l265.478,1.09
					l265.478,1.902c0.354,0.003,0.638,0.291,0.635,0.645c-0.001,0.351-0.285,0.633-0.635,0.635l-265.478,1.902l-265.478,1.09
					l-530.958,0.888l-530.956-0.806l-265.479-1.004l-265.478-1.756c-0.527-0.003-0.95-0.432-0.947-0.96
					C862.72,1440.314,863.143,1439.893,863.664,1439.89z"/>
				<path style="fill:#FFFFFF;" d="M1171.649,995.237l188.482-1.761l188.482-0.999c62.828-0.426,125.654-0.379,188.482-0.511
					l188.482-0.294l376.964,0.886l188.482,1.09c62.826,0.646,125.654,1.025,188.482,1.902c0.353,0.005,0.635,0.295,0.63,0.648
					c-0.005,0.348-0.286,0.627-0.63,0.632c-62.828,0.877-125.656,1.255-188.482,1.902l-188.482,1.09l-376.964,0.886l-188.482-0.294
					c-62.828-0.132-125.654-0.086-188.482-0.511l-188.482-0.999l-188.482-1.761c-0.526-0.005-0.948-0.436-0.943-0.963
					C1170.711,995.661,1171.132,995.242,1171.649,995.237z"/>
				<path style="fill:#FFFFFF;" d="M771.408,1884.542l288.542-1.755l288.542-1.004l577.085-0.806l577.085,0.886l288.542,1.092
					l288.542,1.9c0.354,0.003,0.638,0.292,0.636,0.645c-0.002,0.351-0.287,0.633-0.636,0.636l-288.542,1.9l-288.542,1.092
					l-577.085,0.886l-577.085-0.806l-288.542-1.004l-288.542-1.755c-0.527-0.003-0.952-0.432-0.948-0.96
					C770.462,1884.968,770.887,1884.547,771.408,1884.542z"/>
				<path style="fill:#FFFFFF;" d="M863.664,2329.196l265.478-1.756l265.479-1.004l530.956-0.805l530.958,0.886l265.478,1.09
					l265.478,1.902c0.354,0.002,0.638,0.291,0.635,0.645c-0.001,0.349-0.285,0.633-0.635,0.635l-265.478,1.902l-265.478,1.09
					l-530.958,0.886l-530.956-0.805l-265.479-1.005l-265.478-1.755c-0.527-0.003-0.95-0.432-0.947-0.959
					C862.72,2329.621,863.143,2329.2,863.664,2329.196z"/>
				<path style="fill:#FFFFFF;" d="M2717.491,2778.145H1209.639c-1.848,0-3.343-1.495-3.343-3.343s1.495-3.343,3.343-3.343h1507.852
					c1.848,0,3.343,1.495,3.343,3.343S2719.339,2778.145,2717.491,2778.145z"/>
			</g>
		</g>
		<g>
			
				<linearGradient id="SVGID_00000111878134930872175700000013357884431489177993_" gradientUnits="userSpaceOnUse" x1="1038.3865" y1="1476.5962" x2="1720.302" y2="248.1432">
				<stop  offset="0" style="stop-color:#FF928E"/>
				<stop  offset="1" style="stop-color:#FE7062"/>
			</linearGradient>
			<circle style="fill:url(#SVGID_00000111878134930872175700000013357884431489177993_);" cx="1469.543" cy="699.878" r="222.54"/>
			<g>
				<path style="fill:#FFFFFF;" d="M1473.071,682.49c33.545,0,60.737-27.192,60.737-60.737c0-33.542-27.192-60.734-60.737-60.734
					c-33.542,0-60.734,27.192-60.734,60.734C1412.337,655.298,1439.529,682.49,1473.071,682.49z"/>
				<path style="fill:#FFFFFF;" d="M1596.957,795.244c-22.836-45.951-70.25-77.533-125.046-77.533
					c-54.793,0-102.205,31.577-125.041,77.526c-1.48,2.974-1.315,6.65,0.435,9.473c1.748,2.826,4.832,4.696,8.156,4.696h232.893
					c3.321,0,6.408-1.863,8.158-4.687C1598.265,801.896,1598.435,798.221,1596.957,795.244z"/>
			</g>
		</g>
		<g>
			
				<linearGradient id="SVGID_00000121278147495110889550000010087586900086728336_" gradientUnits="userSpaceOnUse" x1="1123.943" y1="771.324" x2="545.0084" y2="1588.1389">
				<stop  offset="0" style="stop-color:#FF928E"/>
				<stop  offset="1" style="stop-color:#FE7062"/>
			</linearGradient>
			<circle style="fill:url(#SVGID_00000121278147495110889550000010087586900086728336_);" cx="971.584" cy="986.286" r="222.54"/>
			<path style="fill:#FFFFFF;" d="M1090.246,967.219c-1.929-36.189-26.521-66.594-57.149-70.443
				c-24.359-3.061-46.034,10.708-57.572,32.986c-11.565-23.373-33.441-39.31-58.261-38.634
				c-31.565,0.86-57.205,29.521-59.227,66.401c-1.336,24.37,7.508,46.768,22.027,61.867l89.102,72.574
				c3.849,3.135,8.868,3.276,12.71,0.361l87.276-66.216C1083.077,1012.35,1091.52,991.117,1090.246,967.219z"/>
		</g>
		<g>
			
				<linearGradient id="SVGID_00000168101253933396607570000003113752419014812856_" gradientUnits="userSpaceOnUse" x1="858.687" y1="1266.1066" x2="279.7523" y2="2082.9216">
				<stop  offset="0" style="stop-color:#FF928E"/>
				<stop  offset="1" style="stop-color:#FE7062"/>
			</linearGradient>
			<circle style="fill:url(#SVGID_00000168101253933396607570000003113752419014812856_);" cx="706.328" cy="1481.069" r="222.54"/>
			<g>
				<path style="fill:#FFFFFF;" d="M628.214,1619.179l11.159-74.832l-34.847,0.656v-38.445l41.702-0.623l6.845-46.676l-36.473,0.373
					v-38.816l42.456-0.267l10.663-72.3l37.773,0.04l-10.581,72.022l38.406-0.241l10.918-71.739l37.188,0.04l-10.835,71.465
					l33.261-0.209v38.072l-39.105,0.399l-6.688,46.135l34.592-0.517v37.706l-40.87,0.77l-10.482,73.948l-37.921,1.001l10.564-74.237
					l-38.559,0.726l-10.647,74.531L628.214,1619.179z M722.689,1504.792l6.739-46.312l-38.453,0.392l-6.792,46.495L722.689,1504.792
					z"/>
			</g>
		</g>
		<g>
			
				<linearGradient id="SVGID_00000173154807099045859100000004336017746137758905_" gradientUnits="userSpaceOnUse" x1="3337.3318" y1="887.3835" x2="3992.5405" y2="-289.3157">
				<stop  offset="0" style="stop-color:#4F52FF"/>
				<stop  offset="1" style="stop-color:#4042E2"/>
			</linearGradient>
			<path style="fill:url(#SVGID_00000173154807099045859100000004336017746137758905_);" d="M3210.025,1209.43l-221.651-11.532
				c-18.103-0.941-32.546,13.17-32.033,31.409l5.73,203.84c0.468,16.658,14.88,29.384,31.987,28.539l210.474-10.396
				c14.267-0.705,26.048-13.354,26.47-28.347l5.133-182.591C3236.59,1224.092,3224.978,1210.208,3210.025,1209.43z"/>
			<g>
				<g>
					<path style="fill:#BDD0FB;" d="M3171.208,1404.959h-155.556c-12.412,0-22.509-10.097-22.509-22.509v-112.098
						c0-12.412,10.097-22.509,22.509-22.509h155.556c12.412,0,22.509,10.097,22.509,22.509v112.098
						C3193.717,1394.862,3183.619,1404.959,3171.208,1404.959z M3015.652,1264.557c-3.196,0-5.795,2.599-5.795,5.795v112.098
						c0,3.196,2.599,5.795,5.795,5.795h155.556c3.196,0,5.795-2.599,5.795-5.795v-112.098c0-3.196-2.599-5.795-5.795-5.795H3015.652
						z"/>
				</g>
				<path style="fill:#BDD0FB;" d="M3095,1334.902c-1.694,0-3.385-0.513-4.835-1.541l-87.016-61.706
					c-3.764-2.67-4.652-7.887-1.982-11.651c2.667-3.764,7.881-4.655,11.651-1.982l82.178,58.275l81.098-57.6
					c3.754-2.674,8.978-1.789,11.651,1.975c2.674,3.761,1.789,8.978-1.975,11.651l-85.933,61.034
					C3098.392,1334.386,3096.694,1334.902,3095,1334.902z"/>
				<path style="fill:#BDD0FB;" d="M3009.257,1405.41l-2.396-16.542l1.123,8.282l-7.019-4.528
					c1.694-2.739,33.024-57.534,53.669-93.699c2.288-4.012,7.401-5.403,11.4-3.114c4.009,2.288,5.403,7.391,3.114,11.4
					c0,0-13.424,23.515-26.874,47.036c-6.728,11.762-13.463,23.528-18.526,32.352
					C3013.305,1404.786,3013.305,1404.786,3009.257,1405.41z"/>
				<path style="fill:#BDD0FB;" d="M3180.182,1405.403c-4.015-0.643-4.015-0.643-14.442-18.807
					c-5.067-8.827-11.802-20.59-18.53-32.352c-13.45-23.521-26.874-47.036-26.874-47.036c-2.288-4.009-0.894-9.111,3.115-11.4
					c3.996-2.288,9.111-0.901,11.4,3.114c20.639,36.155,51.965,90.944,53.669,93.696l-7.015,4.531L3180.182,1405.403z"/>
			</g>
		</g>
		<g>
			
				<linearGradient id="SVGID_00000011718388172732464110000010264235918069980564_" gradientUnits="userSpaceOnUse" x1="986.1047" y1="1889.6123" x2="1206.7363" y2="625.9966">
				<stop  offset="0" style="stop-color:#4F52FF"/>
				<stop  offset="1" style="stop-color:#4042E2"/>
			</linearGradient>
			<path style="fill:url(#SVGID_00000011718388172732464110000010264235918069980564_);" d="M1062.825,2080.955l-253.857-13.207
				c-20.734-1.078-37.275,15.083-36.688,35.973l6.563,233.457c0.536,19.078,17.042,33.654,36.634,32.686l241.055-11.907
				c16.341-0.807,29.833-15.295,30.316-32.465l5.878-209.121C1093.25,2097.747,1079.951,2081.845,1062.825,2080.955z"/>
			<g>
				<g>
					<path style="fill:#BDD0FB;" d="M928.245,2313.584c-52.723,0-95.617-42.894-95.617-95.616c0-52.723,42.893-95.616,95.617-95.616
						c52.723,0,95.616,42.893,95.616,95.616C1023.861,2270.69,980.968,2313.584,928.245,2313.584z M928.245,2138.375
						c-43.888,0-79.594,35.705-79.594,79.593c0,43.888,35.705,79.593,79.594,79.593c43.887,0,79.593-35.705,79.593-79.593
						C1007.838,2174.08,972.133,2138.375,928.245,2138.375z"/>
				</g>
				<path style="fill-rule:evenodd;clip-rule:evenodd;fill:#BDD0FB;" d="M898.292,2254.79v-68.741
					c0-7.345,7.995-11.898,14.312-8.149l57.923,34.371c6.187,3.671,6.187,12.627,0,16.299l-57.923,34.371
					C906.287,2266.688,898.292,2262.135,898.292,2254.79z"/>
			</g>
		</g>
		<g>
			<g>
				
					<linearGradient id="SVGID_00000016043300553619325270000009572872056940811693_" gradientUnits="userSpaceOnUse" x1="2151.0569" y1="3464.1829" x2="2151.0569" y2="1297.9869">
					<stop  offset="0" style="stop-color:#09005D"/>
					<stop  offset="0.7977" style="stop-color:#170C86"/>
					<stop  offset="1" style="stop-color:#1A0F91"/>
				</linearGradient>
				<path style="fill:url(#SVGID_00000016043300553619325270000009572872056940811693_);" d="M1470.215,849.645
					c-60.965,5.302-107.706,56.359-107.88,117.554c-1.062,374.231-2.812,1665.053,21.58,2121.932
					c2.584,48.402,42.266,86.426,90.734,86.948c239.726,2.581,929.29,7.323,1320.759-17.718
					c81.537-5.216,144.985-72.746,144.887-154.449c-0.476-392.769-6.751-1497.369-60.554-2002.269
					c-6.446-60.495-55.075-107.714-115.729-112.44C2502.554,868.831,1808.249,820.247,1470.215,849.645z"/>
				
					<linearGradient id="SVGID_00000093872653088161591020000016550002269124983209_" gradientUnits="userSpaceOnUse" x1="1450.4624" y1="1955.3026" x2="2831.8828" y2="1955.3026">
					<stop  offset="0" style="stop-color:#FF928E"/>
					<stop  offset="1" style="stop-color:#FE7062"/>
				</linearGradient>
				<path style="fill:url(#SVGID_00000093872653088161591020000016550002269124983209_);" d="M1458.564,1065.273
					c-4.708,320.121-18.112,1385.032,5.287,1778.072c3.42,57.448,48.044,102.803,103.145,104.723
					c226.867,7.906,808.629,23.206,1140.128-13.27c59.692-6.568,105.313-58.308,106.903-120.958
					c8.292-326.683,30.69-1318.524,7.949-1707.169c-3.628-62-50.995-111.471-110.372-115.472
					c-245.643-16.552-876.424-54.724-1158.319-31.248C1500.368,964.359,1459.379,1009.852,1458.564,1065.273z"/>
				
					<linearGradient id="SVGID_00000050623042723523226680000013222905441507647887_" gradientUnits="userSpaceOnUse" x1="2105.2017" y1="-204.0275" x2="2115.23" y2="182.0585">
					<stop  offset="0" style="stop-color:#4F52FF"/>
					<stop  offset="1" style="stop-color:#4042E2"/>
				</linearGradient>
				<path style="fill:url(#SVGID_00000050623042723523226680000013222905441507647887_);" d="M2006.701,905.305
					c0.194,8.844,7.247,15.987,16.089,16.256c43.653,1.326,166.625,5.091,221.589,7.071c10.837,0.39,19.119-9.525,16.832-20.126
					c-0.188-0.334-1.596-13.926-15.477-14.891c-37.18-2.585-149.352-9.555-223.478-5.279
					C2007.035,889.215,2006.207,906.525,2006.701,905.305z"/>
			</g>
		</g>
		<g style="opacity:0.7;">
			<g>
				<g>
					<g>
						<path style="fill:#FFFFFF;" d="M2157.925,2572.005c-0.862,0-1.733-0.095-2.602-0.291l-97.111-21.951h0.003
							c-4.926-1.11-8.605-5.23-9.154-10.251l-8.782-79.704c-34.043-16.865-65.138-38.845-92.501-65.389l-78.111,18.373
							c-4.936,1.156-10.029-0.937-12.719-5.207l-53.14-84.18c-2.69-4.273-2.38-9.784,0.777-13.721l50.183-62.611
							c-12.196-36.129-18.667-73.655-19.245-111.628l-68.183-42.217c-4.286-2.654-6.421-7.743-5.312-12.666l21.951-97.107
							c1.116-4.926,5.236-8.605,10.251-9.154l79.704-8.778c16.861-34.039,38.845-65.137,65.392-92.504l-18.376-78.108
							c-1.156-4.913,0.934-10.022,5.197-12.715l84.189-53.144c4.264-2.687,9.777-2.386,13.718,0.77l62.614,50.189
							c36.126-12.196,73.652-18.667,111.631-19.248l42.214-68.18c2.657-4.293,7.757-6.418,12.673-5.311l97.101,21.951
							c4.923,1.11,8.605,5.226,9.154,10.247l8.781,79.704c34.04,16.861,65.134,38.845,92.501,65.392l78.108-18.373
							c4.913-1.159,10.022,0.937,12.715,5.197l53.144,84.189c2.693,4.264,2.386,9.777-0.771,13.718l-50.189,62.611
							c12.199,36.129,18.67,73.655,19.248,111.631l68.18,42.214c4.293,2.657,6.428,7.75,5.312,12.676l-21.951,97.101
							c-1.11,4.916-5.223,8.599-10.241,9.154l-79.71,8.781c-16.862,34.036-38.842,65.128-65.392,92.498l18.373,78.111
							c1.156,4.913-0.934,10.022-5.2,12.715l-84.183,53.144c-4.28,2.693-9.791,2.377-13.724-0.777l-62.607-50.183
							c-36.125,12.196-73.651,18.667-111.631,19.248l-42.214,68.18C2165.799,2569.936,2161.96,2572.005,2157.925,2572.005z
							 M1950.861,2383.396l1.972,1.942c27.723,27.295,59.457,49.729,94.319,66.675l2.491,1.208l9.389,85.198
							c0.085,0.767,0.643,1.394,1.391,1.564h0.003l97.107,21.951c0.744,0.16,1.525-0.16,1.929-0.813l45.119-72.871l2.768-0.023
							c38.757-0.3,77.053-6.905,113.832-19.626l2.615-0.904l66.923,53.636c0.597,0.483,1.44,0.532,2.096,0.117l84.18-53.14
							c0.65-0.411,0.97-1.188,0.793-1.936l-19.636-83.491l1.939-1.972c27.305-27.729,49.739-59.464,66.682-94.316l1.208-2.491
							l85.198-9.389c0.761-0.085,1.391-0.643,1.561-1.394l21.951-97.107c0.17-0.751-0.157-1.528-0.81-1.933l-72.875-45.119
							l-0.023-2.768c-0.297-38.753-6.901-77.05-19.626-113.831l-0.904-2.615l53.64-66.923c0.483-0.598,0.529-1.436,0.121-2.086
							l-53.144-84.189c-0.408-0.65-1.175-0.966-1.942-0.793l-83.484,19.636l-1.972-1.939c-27.726-27.305-59.46-49.739-94.319-66.682
							l-2.491-1.208l-9.389-85.198c-0.082-0.764-0.643-1.391-1.394-1.56l-97.107-21.951c-0.735-0.167-1.524,0.153-1.929,0.81
							l-45.119,72.875l-2.768,0.023c-38.757,0.3-77.053,6.904-113.832,19.626l-2.615,0.904l-66.923-53.64
							c-0.594-0.48-1.433-0.529-2.093-0.118l-84.186,53.14c-0.65,0.411-0.97,1.192-0.793,1.943l19.639,83.484l-1.939,1.972
							c-27.305,27.729-49.739,59.464-66.678,94.323l-1.211,2.491l-85.198,9.386c-0.767,0.082-1.394,0.646-1.564,1.401
							l-21.951,97.101c-0.17,0.748,0.157,1.524,0.81,1.929l72.878,45.123l0.023,2.768c0.297,38.75,6.901,77.046,19.623,113.828
							l0.904,2.615l-53.636,66.923c-0.483,0.601-0.532,1.443-0.117,2.096l53.14,84.18c0.411,0.656,1.195,0.973,1.936,0.796
							L1950.861,2383.396z M2201.108,2372.891c-0.016,0-0.032,0-0.049,0c-17.328-0.173-34.777-2.217-51.857-6.075
							c-131.894-29.815-214.941-161.376-185.129-293.274c29.818-131.891,161.363-214.928,293.274-185.126
							c131.894,29.815,214.941,161.38,185.126,293.274c-9.8,43.36-31.127,83.184-61.671,115.167
							c-1.916,2.004-5.086,2.076-7.091,0.163c-2.001-1.913-2.076-5.086-0.163-7.091c29.29-30.67,49.742-68.862,59.144-110.453
							c28.597-126.501-51.054-252.682-177.559-281.28c-126.511-28.591-252.683,51.054-281.28,177.559
							c-28.594,126.501,51.057,252.683,177.559,281.28c16.388,3.702,33.125,5.664,49.745,5.827c2.772,0.03,4.991,2.295,4.965,5.063
							C2206.096,2370.677,2203.857,2372.891,2201.108,2372.891z"/>
					</g>
					<g>
						<path style="fill:#FFFFFF;" d="M2204.157,2222.953c-14.491,0-28.881-3.411-42.178-10.159
							c-22.251-11.292-38.773-30.569-46.523-54.29c-7.747-23.717-5.798-49.03,5.494-71.281
							c11.292-22.251,30.569-38.773,54.29-46.523c23.71-7.756,49.03-5.801,71.281,5.491c45.932,23.309,64.338,79.642,41.032,125.574
							c-11.292,22.251-30.573,38.773-54.289,46.523C2223.718,2221.406,2213.915,2222.953,2204.157,2222.953z M2204.337,2046.067
							c-8.713,0-17.462,1.381-25.983,4.166c-21.17,6.918-38.381,21.667-48.459,41.528c-10.081,19.862-11.821,42.459-4.904,63.629
							c6.914,21.17,21.664,38.381,41.525,48.459l0,0c19.862,10.078,42.456,11.821,63.633,4.904
							c21.171-6.914,38.381-21.664,48.459-41.525c20.805-41.003,4.375-91.287-36.625-112.092
							C2230.114,2049.113,2217.268,2046.067,2204.337,2046.067z"/>
					</g>
				</g>
				<g>
					<g>
						<path style="fill:#FFFFFF;" d="M1825.463,1748.967c-3.875,0-7.394-2.35-8.86-5.974l-19.728-48.7
							c-24.513-4.678-48.018-12.98-69.94-24.709l-45.929,25.457c-3.558,1.978-7.988,1.476-11.024-1.25l-49.311-44.365
							c-3.03-2.723-3.999-7.074-2.412-10.832l20.482-48.358c-13.972-20.563-24.706-43.059-31.94-66.949l-50.509-14.488
							c-3.917-1.126-6.692-4.609-6.911-8.674l-3.496-66.241c-0.219-4.068,2.174-7.832,5.954-9.363l48.707-19.728
							c4.675-24.513,12.977-48.018,24.706-69.943l-25.454-45.929c-1.975-3.562-1.476-7.992,1.247-11.021l44.368-49.311
							c2.713-3.033,7.071-4.002,10.828-2.416l48.358,20.482c20.57-13.976,43.069-24.709,66.953-31.937l14.482-50.509
							c1.123-3.917,4.609-6.696,8.677-6.914l66.244-3.496c4.107-0.215,7.835,2.177,9.363,5.961l19.724,48.701
							c24.513,4.675,48.018,12.977,69.943,24.706l45.929-25.454c3.565-1.981,7.995-1.472,11.021,1.247l49.314,44.369
							c3.033,2.729,3.999,7.081,2.406,10.835l-20.472,48.351c13.972,20.57,24.706,43.069,31.934,66.953l50.512,14.488
							c3.914,1.116,6.689,4.603,6.911,8.674l3.496,66.241c0.212,4.071-2.181,7.835-5.955,9.363l-48.704,19.728
							c-4.678,24.514-12.98,48.015-24.709,69.943l25.454,45.926c1.978,3.571,1.472,8.005-1.26,11.031l-44.352,49.305
							c-2.729,3.036-7.074,3.992-10.832,2.412l-48.358-20.479c-20.563,13.972-43.059,24.703-66.949,31.934l-14.488,50.512
							c-1.123,3.924-4.616,6.699-8.687,6.911l-66.231,3.5C1825.799,1748.964,1825.63,1748.967,1825.463,1748.967z M1726.9,1658.138
							l2.426,1.332c22.467,12.35,46.709,20.913,72.052,25.457l2.723,0.49l21.673,53.506l65.565-3.464l15.915-55.494l2.657-0.774
							c24.726-7.185,47.93-18.255,68.967-32.9l2.272-1.58l53.13,22.499l43.908-48.815l-27.964-50.457l1.332-2.426
							c12.35-22.473,20.916-46.716,25.457-72.055l0.49-2.723l53.503-21.67l-3.46-65.565l-55.494-15.915l-0.774-2.657
							c-7.182-24.722-18.252-47.927-32.9-68.973l-1.58-2.269l22.496-53.127l-48.808-43.915l-50.463,27.967l-2.426-1.332
							c-22.47-12.35-46.712-20.913-72.052-25.454l-2.723-0.49l-21.673-53.506l-65.565,3.46l-15.911,55.494l-2.657,0.774
							c-24.719,7.182-47.927,18.252-68.973,32.903l-2.272,1.58l-53.121-22.499l-43.918,48.808l27.967,50.463l-1.332,2.426
							c-12.35,22.47-20.913,46.712-25.454,72.052l-0.49,2.723l-53.506,21.673l3.46,65.565l55.491,15.915l0.774,2.657
							c7.185,24.726,18.259,47.93,32.907,68.97l1.58,2.272l-22.502,53.127l48.812,43.915L1726.9,1658.138z M1676.685,1686.33h0.036
							H1676.685z M1890.653,1607.948c-2.145,0-4.13-1.384-4.792-3.542c-0.813-2.647,0.672-5.452,3.32-6.265
							c26.72-8.207,50.78-23.59,69.577-44.486c27.696-30.785,41.747-70.514,39.563-111.866
							c-2.184-41.355-20.341-79.381-51.126-107.077c-63.551-57.178-161.771-51.988-218.947,11.563
							c-27.696,30.785-41.747,70.514-39.563,111.866c2.184,41.355,20.341,79.381,51.126,107.077
							c8.24,7.411,17.234,13.927,26.733,19.369c2.406,1.378,3.235,4.44,1.861,6.843c-1.381,2.406-4.45,3.239-6.843,1.861
							c-10.117-5.795-19.692-12.732-28.457-20.616c-32.779-29.489-52.109-69.976-54.436-114.004
							c-2.324-44.029,12.634-86.325,42.122-119.101c60.88-67.664,165.451-73.181,233.108-12.314
							c32.779,29.489,52.109,69.976,54.436,114.005c2.324,44.029-12.634,86.324-42.123,119.1
							c-20.015,22.248-45.635,38.626-74.089,47.365C1891.635,1607.877,1891.139,1607.948,1890.653,1607.948z"/>
					</g>
				</g>
			</g>
		</g>
		<g>
			
				<linearGradient id="SVGID_00000039813262657564942740000007521700988804340636_" gradientUnits="userSpaceOnUse" x1="2270.8669" y1="2564.0669" x2="2819.1001" y2="1668.172">
				<stop  offset="0" style="stop-color:#09005D"/>
				<stop  offset="1" style="stop-color:#1A0F91"/>
			</linearGradient>
			<path style="fill:url(#SVGID_00000039813262657564942740000007521700988804340636_);" d="M2997.313,1522.737
				c55.722,37.148,106.8,120.73,4.644,255.391c-91.629,120.784-185.739,199.669-171.809,273.965
				c13.931,74.295-94.694,261.593-315.756,139.304c-218.243-120.73-176.452-352.904,88.226-441.13
				C2757.552,1698.622,2793.309,1386.735,2997.313,1522.737z"/>
			
				<linearGradient id="SVGID_00000137845305056425855390000015958506295890889370_" gradientUnits="userSpaceOnUse" x1="4333.5039" y1="1878.6122" x2="4256.5591" y2="2163.3088" gradientTransform="matrix(1 0 0 1 -1206.2708 0)">
				<stop  offset="0" style="stop-color:#FEBBBA"/>
				<stop  offset="1" style="stop-color:#FF928E"/>
			</linearGradient>
			<path style="fill:url(#SVGID_00000137845305056425855390000015958506295890889370_);" d="M3174.594,1987.018
				c0,0-86.461,103.546-173.524,19.456l-33.638,78.008c0,0,127.139,98.446,223.577-56.448L3174.594,1987.018z"/>
			
				<linearGradient id="SVGID_00000128456925714540743950000016021729035523221420_" gradientUnits="userSpaceOnUse" x1="3641.5286" y1="1552.9882" x2="3380.7959" y2="1718.4529">
				<stop  offset="0" style="stop-color:#4F52FF"/>
				<stop  offset="1" style="stop-color:#4042E2"/>
			</linearGradient>
			<path style="fill:url(#SVGID_00000128456925714540743950000016021729035523221420_);" d="M2961.051,1794.793
				c-24-7.195-93.882-20.48-160.352,40.861c-11.273,10.404-15.881,26.211-11.86,41.015c17.854,65.728,64.958,259.916,23.656,343.938
				c0,0,72.785,80.235,152.19,15.568c0,0,35.626-155.275,82.29-223.441c32.218-47.06-51.372-176.72-72.52-208.045
				C2971.251,1799.946,2966.531,1796.437,2961.051,1794.793z"/>
			
				<linearGradient id="SVGID_00000067203042853616203690000006010764635237397182_" gradientUnits="userSpaceOnUse" x1="-9157.0889" y1="3446.5559" x2="-9137.8799" y2="3310.1716" gradientTransform="matrix(-0.9887 0.1503 0.1503 0.9887 -6617.4409 -161.5951)">
				<stop  offset="0" style="stop-color:#FEBBBA"/>
				<stop  offset="1" style="stop-color:#FF928E"/>
			</linearGradient>
			<path style="fill:url(#SVGID_00000067203042853616203690000006010764635237397182_);" d="M2923.873,1669.497
				c0,0-48.431,94.84-56.922,138.392c0,0,36.533,22.859,77.148-2.11c0,0,17.076-98.894,25-115.955L2923.873,1669.497z"/>
			<g>
				
					<linearGradient id="SVGID_00000176754154551730249970000007171737998456289426_" gradientUnits="userSpaceOnUse" x1="-9906.4199" y1="2173.4661" x2="-9726.8096" y2="2379.9702" gradientTransform="matrix(-0.9609 -0.2771 -0.2771 0.9609 -5889.8247 -3190.0432)">
					<stop  offset="0" style="stop-color:#FEBBBA"/>
					<stop  offset="1" style="stop-color:#FF928E"/>
				</linearGradient>
				<path style="fill:url(#SVGID_00000176754154551730249970000007171737998456289426_);" d="M3032.439,1616.038
					c0,0,9.024,159.431-58.051,161.664c-67.074,2.235-73.583-111.125-73.583-111.125s19.801-71.617,51.733-79.966
					C2984.47,1578.26,3032.439,1616.038,3032.439,1616.038z"/>
				
					<linearGradient id="SVGID_00000124847232635570896190000002189418122177837197_" gradientUnits="userSpaceOnUse" x1="2354.4021" y1="2615.1855" x2="2902.6367" y2="1719.2883">
					<stop  offset="0" style="stop-color:#09005D"/>
					<stop  offset="1" style="stop-color:#1A0F91"/>
				</linearGradient>
				<path style="fill:url(#SVGID_00000124847232635570896190000002189418122177837197_);" d="M3012.715,1566.829
					c0,0,30.646,31.337,25.384,50.841c-5.263,19.505-70.997-0.892-87.204-10.105l-54.302,57.796c0,0,1.664-85.62,39.127-111.987
					C2973.182,1527.007,3012.715,1566.829,3012.715,1566.829z"/>
				
					<linearGradient id="SVGID_00000095318741589379696170000012004352979029570459_" gradientUnits="userSpaceOnUse" x1="-9861.5449" y1="2134.4348" x2="-9681.9365" y2="2340.936" gradientTransform="matrix(-0.9609 -0.2771 -0.2771 0.9609 -5889.8247 -3190.0432)">
					<stop  offset="0" style="stop-color:#FEBBBA"/>
					<stop  offset="1" style="stop-color:#FF928E"/>
				</linearGradient>
				<path style="fill:url(#SVGID_00000095318741589379696170000012004352979029570459_);" d="M2921.126,1668.115
					c0,0-8.174-54.684-34.904-39.307c-26.73,15.376,1.961,57.756,22.842,55.112L2921.126,1668.115z"/>
			</g>
			
				<linearGradient id="SVGID_00000099623025340053303070000007513138760795818681_" gradientUnits="userSpaceOnUse" x1="8280.8545" y1="3444.4512" x2="8709.3818" y2="2688.0095" gradientTransform="matrix(1 -0.0095 0.0095 1 -5679.6729 56.9446)">
				<stop  offset="0" style="stop-color:#FEBBBA"/>
				<stop  offset="1" style="stop-color:#FF928E"/>
			</linearGradient>
			<path style="fill:url(#SVGID_00000099623025340053303070000007513138760795818681_);" d="M3057.38,2562.189
				c-0.272,7.049,12.104,62.962,18.84,92.786c2.711,12,0.823,24.558-5.287,35.236l-233.266,392.599
				c-2.823,4.749-4.876,9.893-6.125,15.274c-4.275,18.424-13.142,63.575-8.511,104.653l12.067,25.063l-52.189-11.85l-11.354-140.153
				l14.775-9.009c12.763-7.781,22.702-19.417,28.392-33.241c21.093-51.235,73.472-181.656,86.974-245.216
				c15.344-72.237,95.56-130.909,95.56-130.909l-14.092-33.318L3057.38,2562.189z"/>
			
				<linearGradient id="SVGID_00000137129192583458869950000009457664518277096065_" gradientUnits="userSpaceOnUse" x1="2724.9063" y1="3153.6443" x2="2850.7886" y2="3153.6443">
				<stop  offset="0" style="stop-color:#4F52FF"/>
				<stop  offset="1" style="stop-color:#4042E2"/>
			</linearGradient>
			<path style="fill:url(#SVGID_00000137129192583458869950000009457664518277096065_);" d="M2724.906,3167.722
				c0,0,28.183-44.682,31.499-62.075c3.316-17.392,12.547-48.106,29.923-38.86c0,0,8.187,84.49,5.365,117.503
				c-2.823,33.013,37.32,31.951,37.32,31.951s11.063,1.555,19.166,9.655c5.595,5.594,1.593,15.298-6.3,15.807
				c-13.137,0.846-34.003,1.068-55.912-3.166c-7.657-1.479-13.333-7.995-13.797-15.78l-5.784-97.24l-35.55,44.889L2724.906,3167.722
				z"/>
			
				<linearGradient id="SVGID_00000003806208240279877170000015214430803681047175_" gradientUnits="userSpaceOnUse" x1="8766.4814" y1="2884.8542" x2="8125.6021" y2="3089.7869" gradientTransform="matrix(1 -0.0095 0.0095 1 -5679.6729 56.9446)">
				<stop  offset="0" style="stop-color:#FEBBBA"/>
				<stop  offset="1" style="stop-color:#FF928E"/>
			</linearGradient>
			<path style="fill:url(#SVGID_00000003806208240279877170000015214430803681047175_);" d="M2918.031,2624.725
				c0,0-8.228,351.178-9.342,401.053c-1.114,49.877,7.875,160.407,57.876,193.445l-21.757,16.107c0,0-27.189-23.109-53.754-67.584
				c-29.84-49.963-38.863-59.092-38.863-59.092l9.901-20.278c4.336-8.878,5.61-18.92,3.613-28.597
				c-10.79-52.295-46.835-226.234-56.668-263.692c-11.607-44.217-12.431-103.265,27.948-152.693
				C2877.364,2593.969,2918.031,2624.725,2918.031,2624.725z"/>
			
				<linearGradient id="SVGID_00000124155613458588220890000017057285018642215852_" gradientUnits="userSpaceOnUse" x1="2840.6284" y1="3175.7048" x2="2991.0781" y2="3175.7048">
				<stop  offset="0" style="stop-color:#4F52FF"/>
				<stop  offset="1" style="stop-color:#4042E2"/>
			</linearGradient>
			<path style="fill:url(#SVGID_00000124155613458588220890000017057285018642215852_);" d="M2871.858,3251.159
				c-1.551,0.014-2.869-1.096-3.088-2.632c-1.665-11.708-8.59-58.645-14.258-70.799c-6.494-13.919-27.703-72.503,0.011-77.478
				c0,0,68.898,100.66,82.123,114.231c13.226,13.573,29.918,4.742,29.918,4.742s12.885,3.807,22.603,16.226
				c4.626,5.911,0.317,14.587-7.188,14.658l-46.407,0.443c-13.478,0.128-25.599-8.059-30.609-20.572
				c-8.169-20.403-22.201-50.331-38.555-63.607l8.497,81.372C2875.095,3249.558,2873.683,3251.142,2871.858,3251.159
				L2871.858,3251.159z"/>
			
				<linearGradient id="SVGID_00000161620514063700565530000001621939399101097873_" gradientUnits="userSpaceOnUse" x1="3295.7227" y1="1733.1802" x2="3065.0742" y2="2169.4065">
				<stop  offset="0" style="stop-color:#09005D"/>
				<stop  offset="1" style="stop-color:#1A0F91"/>
			</linearGradient>
			<path style="fill:url(#SVGID_00000161620514063700565530000001621939399101097873_);" d="M2975.667,2198.31
				c0,0-10.457,33.333,5.609,88.233l99.662,348.026c1.566,5.469-1.385,11.192-6.74,13.114
				c-29.811,10.699-127.809,40.94-261.585,31.718c-6.735-0.465-12.383-5.233-13.847-11.824
				c-8.815-39.676-38.89-175.047-45.082-202.862c-23.596-105.985-46.446-206.778,69.455-275.89
				C2876.553,2211.703,2922.877,2211.684,2975.667,2198.31z"/>
			
				<linearGradient id="SVGID_00000107589602282925699510000010716066590229247370_" gradientUnits="userSpaceOnUse" x1="3012.1655" y1="2108.8032" x2="2706.3059" y2="1657.5339">
				<stop  offset="0" style="stop-color:#FEBBBA"/>
				<stop  offset="1" style="stop-color:#FF928E"/>
			</linearGradient>
			<path style="fill:url(#SVGID_00000107589602282925699510000010716066590229247370_);" d="M2855.448,1883.177
				c0,0-20.062,286.691,165.168,142.694c0,0,27.356-25.842,47.106-28.984c10.637-1.693,22.639-2.823,31.45-3.506
				c4.02-0.312,5.899,4.88,2.601,7.198c-6.363,4.47-14.7,9.282-21.931,10.033c-13.975,1.448,0.923,11.689-14.294,38.446
				c-15.216,26.758-36.955,16.667-36.955,16.667s-212.237,217.346-254.612-161.719
				C2772.485,1833.488,2840.339,1837.238,2855.448,1883.177z"/>
			<g>
				
					<linearGradient id="SVGID_00000088099525137670069120000009201327837664586131_" gradientUnits="userSpaceOnUse" x1="-10312.3535" y1="1095.0128" x2="-10368.0938" y2="1153.9263" gradientTransform="matrix(-0.9865 -0.1635 -0.2088 1.2596 -6800.165 -1140.5688)">
					<stop  offset="0" style="stop-color:#09005D"/>
					<stop  offset="1" style="stop-color:#1A0F91"/>
				</linearGradient>
				<path style="fill:url(#SVGID_00000088099525137670069120000009201327837664586131_);" d="M3231.436,1915.754l-63.014-8.302
					c-7.513-1.246-15.269,3.156-19.911,11.301l-41.451,91.624c-7.804,13.691-2.253,31.851,10.375,33.945l50.6,6.49
					c4.842,0.803,9.818-2.253,12.55-7.708l56.061-111.896C3239.885,1924.743,3237.176,1916.706,3231.436,1915.754z"/>
			</g>
			
				<linearGradient id="SVGID_00000145772677972752821590000010641064647745154704_" gradientUnits="userSpaceOnUse" x1="4418.5259" y1="1908.7124" x2="4377.9746" y2="2058.7522" gradientTransform="matrix(1 0 0 1 -1206.2708 0)">
				<stop  offset="0" style="stop-color:#FEBBBA"/>
				<stop  offset="1" style="stop-color:#FF928E"/>
			</linearGradient>
			<path style="fill:url(#SVGID_00000145772677972752821590000010641064647745154704_);" d="M3188.444,2039.341
				c0,0,42.368-61.659,37.447-69.25c-4.922-7.591-42.063-18.467-50.784-21.032
				C3166.387,1946.494,3149.972,2002.407,3188.444,2039.341z"/>
			<path style="fill:#7D97F4;" d="M2542.797,2143.338c0.923,0,1.795-0.553,2.158-1.464c0.474-1.193-0.109-2.539-1.302-3.016
				c-40.658-16.17-73.654-50.448-88.269-91.695c-14.613-41.247-10.557-88.657,10.851-126.82
				c30.133-53.717,87.897-83.737,143.76-112.768l6.729-3.501c60.394-31.452,119.26-68.917,140.866-129.557
				c0.429-1.208-0.201-2.537-1.407-2.968c-1.213-0.428-2.535,0.199-2.968,1.408c-21.065,59.129-79.082,95.982-138.635,126.999
				l-6.727,3.497c-56.465,29.348-114.856,59.689-145.667,114.622c-22.052,39.311-26.23,88.149-11.177,130.639
				c15.055,42.49,49.047,77.801,90.931,94.46C2542.221,2143.284,2542.511,2143.338,2542.797,2143.338z"/>
			<path style="fill:#7D97F4;" d="M2605.177,2121.94c1.037,0,1.981-0.698,2.25-1.75c0.313-1.247-0.44-2.508-1.682-2.82
				c-46.981-11.885-86.217-41.27-104.957-78.599c-21.122-42.082-14.425-94.515,15.93-124.671c0.909-0.902,0.914-2.372,0.009-3.283
				c-0.905-0.911-2.374-0.911-3.283-0.009c-31.736,31.529-38.803,86.221-16.805,130.048c19.336,38.517,59.696,68.805,107.968,81.011
				C2604.797,2121.917,2604.99,2121.94,2605.177,2121.94z"/>
		</g>
		<g>
			
				<linearGradient id="SVGID_00000158025869344475705130000004573095038626836098_" gradientUnits="userSpaceOnUse" x1="1286.6858" y1="2858.426" x2="1210.8619" y2="2973.7817">
				<stop  offset="0" style="stop-color:#FF928E"/>
				<stop  offset="1" style="stop-color:#FE7062"/>
			</linearGradient>
			<path style="fill:url(#SVGID_00000158025869344475705130000004573095038626836098_);" d="M1194.399,2910.732
				c16.561,3.294,110.934,59.452,110.934-4.753c0-6.048,0-71.719,0-71.719S1189.641,2909.786,1194.399,2910.732z"/>
			
				<linearGradient id="SVGID_00000044174793629050268600000002953700979852558256_" gradientUnits="userSpaceOnUse" x1="1195.4069" y1="2642.1802" x2="1201.8876" y2="2814.5649">
				<stop  offset="0" style="stop-color:#FEBBBA"/>
				<stop  offset="1" style="stop-color:#FF928E"/>
			</linearGradient>
			<path style="fill:url(#SVGID_00000044174793629050268600000002953700979852558256_);" d="M1253.462,2790.192
				c0,0-41.476-69.991-46.661-138.686c-5.184-68.695,3.24-98.762-4.536-118.724c-7.777-19.962-45.58-95.781-47.309-72.993
				c-1.728,22.788,12.097,46.55,12.097,46.55s-23.981,19.078-19.874,41.044c4.107,21.966,12.529,24.194,12.529,24.194
				s1.296,47.525,3.456,47.525c2.16,0-38.02,238.488,6.913,243.672C1215.01,2867.96,1251.302,2899.931,1253.462,2790.192z"/>
			
				<linearGradient id="SVGID_00000164502014072963648620000005021247126769686945_" gradientUnits="userSpaceOnUse" x1="1069.4081" y1="2324.5798" x2="978.5332" y2="2452.7947" gradientTransform="matrix(0.9963 -0.0857 0.0857 0.9963 -113.9226 236.535)">
				<stop  offset="0" style="stop-color:#FEBBBA"/>
				<stop  offset="1" style="stop-color:#FF928E"/>
			</linearGradient>
			<path style="fill:url(#SVGID_00000164502014072963648620000005021247126769686945_);" d="M1134.936,2530.489
				c-0.419-3.157-29.467-66.343-24.265-73.528c5.202-7.185,10.453-13.594,18.607,7.709c8.154,21.304,17.882,79.257,14.749,79.603
				C1140.894,2544.618,1136.437,2541.813,1134.936,2530.489z"/>
			
				<linearGradient id="SVGID_00000133513826950407561510000011264119438470530491_" gradientUnits="userSpaceOnUse" x1="854.2032" y1="3187.8479" x2="765.299" y2="3299.6284">
				<stop  offset="0" style="stop-color:#09005D"/>
				<stop  offset="1" style="stop-color:#1A0F91"/>
			</linearGradient>
			<path style="fill:url(#SVGID_00000133513826950407561510000011264119438470530491_);" d="M863.126,3218.885
				c0,0-21.929-18.2-51.086-15.547c-20.328,3.561-44.176,21.539-59.549,34.879c-2.681,2.325-3.582,6.028-2.263,9.276
				c1.319,3.247,4.58,5.354,8.174,5.279c38.122-0.79,112.704-3.054,112.704-8.675
				C871.104,3236.548,863.126,3218.885,863.126,3218.885z"/>
			
				<linearGradient id="SVGID_00000096747187278308271880000011990868515643635328_" gradientUnits="userSpaceOnUse" x1="870.6875" y1="3166.9038" x2="819.0565" y2="3231.8201">
				<stop  offset="0" style="stop-color:#FEBBBA"/>
				<stop  offset="1" style="stop-color:#FF928E"/>
			</linearGradient>
			<path style="fill:url(#SVGID_00000096747187278308271880000011990868515643635328_);" d="M878.233,3186.807l-17.498,33.051
				c0,0-39.532,3.24-38.236-12.313c1.296-15.554,11.017-34.348,11.017-34.348L878.233,3186.807z"/>
			
				<linearGradient id="SVGID_00000019644854980582608400000012194240534345853373_" gradientUnits="userSpaceOnUse" x1="1084.9586" y1="3155.1333" x2="984.6761" y2="3616.4314">
				<stop  offset="0" style="stop-color:#09005D"/>
				<stop  offset="1" style="stop-color:#1A0F91"/>
			</linearGradient>
			<path style="fill:url(#SVGID_00000019644854980582608400000012194240534345853373_);" d="M1325.032,3209.311
				c-27.415-149.675-47.382-245.793-47.382-245.793s-303.828-196.008-334.935-148.052
				c-31.107,47.957-120.248,375.229-120.248,375.229l59.437,16.202c0,0,113.627-153.909,123.996-285.307
				c29.254,95.834,56.516,324.848,281.586,331.417c11.174,0.326,21.894-4.416,29.18-12.895
				C1323.953,3231.635,1327.046,3220.307,1325.032,3209.311z"/>
			
				<linearGradient id="SVGID_00000176006031842509472620000001399627943835172287_" gradientUnits="userSpaceOnUse" x1="621.3624" y1="3157.665" x2="653.8088" y2="3271.4978">
				<stop  offset="0" style="stop-color:#FEBBBA"/>
				<stop  offset="1" style="stop-color:#FF928E"/>
			</linearGradient>
			<polygon style="fill:url(#SVGID_00000176006031842509472620000001399627943835172287_);" points="668.26,3205.601 
				631.969,3239.948 603.454,3211.434 641.042,3168.013 			"/>
			
				<linearGradient id="SVGID_00000067956715695027006590000000204995553976789172_" gradientUnits="userSpaceOnUse" x1="3990.8616" y1="2615.1199" x2="4006.4971" y2="2474.3999" gradientTransform="matrix(-1 0 0 1 5432.4297 0)">
				<stop  offset="0" style="stop-color:#FEBBBA"/>
				<stop  offset="1" style="stop-color:#FF928E"/>
			</linearGradient>
			<path style="fill:url(#SVGID_00000067956715695027006590000000204995553976789172_);" d="M1466.89,2460.14l30.303,111.671
				c1.388,5.116-0.327,10.657-4.315,13.675c-14.59,11.041-52.721,32.997-105.03,11.659c-5.982-2.44-10.081-8.614-10.6-15.636
				l-7.184-97.284L1466.89,2460.14z"/>
			<g>
				
					<linearGradient id="SVGID_00000036938294585753459100000001998206448247291531_" gradientUnits="userSpaceOnUse" x1="3980.4277" y1="2602.1162" x2="3918.1772" y2="2396.7993" gradientTransform="matrix(-0.9964 -0.085 -0.085 0.9964 5543.4702 233.0212)">
					<stop  offset="0" style="stop-color:#FEBBBA"/>
					<stop  offset="1" style="stop-color:#FF928E"/>
				</linearGradient>
				<path style="fill:url(#SVGID_00000036938294585753459100000001998206448247291531_);" d="M1289.524,2370.063
					c0,0,5.94,105.656,43.302,141.178c37.361,35.523,117.551,18.015,150.652-58.43l-41.101-139.041L1289.524,2370.063z"/>
				
					<linearGradient id="SVGID_00000021095458481402073840000008615837260119343519_" gradientUnits="userSpaceOnUse" x1="1424.4628" y1="2165.761" x2="1640.0692" y2="1383.5615">
					<stop  offset="0" style="stop-color:#4F52FF"/>
					<stop  offset="1" style="stop-color:#4042E2"/>
				</linearGradient>
				<path style="fill:url(#SVGID_00000021095458481402073840000008615837260119343519_);" d="M1430.504,2408.476
					c-3.134,0.723-6.161-1.504-6.366-4.714c-0.625-9.76-2.612-29.139-8.819-42.752c0,0,4.995-13.369-35.209,4.041
					c-40.204,17.411-100.531,42.877-132.978,21.88c-31.635-20.472-57.629-112.136,28.552-88.212c3.279,0.91,6.569-1.483,6.609-4.886
					c0.169-14.686,4.481-48.14,39.402-56.016c32.679-7.371,48.873,8.478,55.312,17.76c1.894,2.731,5.818,3.014,8.056,0.558
					c10.594-11.631,38.738-35.909,75.411-15.865c30.208,16.51,33.44,36.259,31.894,48.262c-0.501,3.889,3.235,6.872,6.923,5.54
					c9.99-3.608,25.649-4.589,38.877,15.232c18.288,27.402-12.871,47.154-22.147,52.238c-1.52,0.833-2.549,2.341-2.707,4.067
					c-1.221,13.335-5.894,72.763-37.864,103.103c-2.768,2.627-9.734-0.01-10.907-3.642l-17.894-55.427
					c-0.831-2.574-3.494-4.084-6.13-3.477L1430.504,2408.476z"/>
				
					<linearGradient id="SVGID_00000092437088057186640230000017030011753594286001_" gradientUnits="userSpaceOnUse" x1="3928.9634" y1="2626.6777" x2="3866.7129" y2="2421.3608" gradientTransform="matrix(-0.9964 -0.085 -0.085 0.9964 5543.4702 233.0212)">
					<stop  offset="0" style="stop-color:#FEBBBA"/>
					<stop  offset="1" style="stop-color:#FF928E"/>
				</linearGradient>
				<path style="fill:url(#SVGID_00000092437088057186640230000017030011753594286001_);" d="M1426.078,2416.06
					c0,0,18.479-54.69,37.766-34.777c19.286,19.914-10.383,57.591-34.898,63.163L1426.078,2416.06z"/>
			</g>
			
				<linearGradient id="SVGID_00000010280281241278646330000004870101891283792534_" gradientUnits="userSpaceOnUse" x1="1099.5095" y1="2476.4424" x2="1276.9054" y2="3098.8081">
				<stop  offset="0" style="stop-color:#FEBBBA"/>
				<stop  offset="1" style="stop-color:#FF928E"/>
			</linearGradient>
			<path style="fill:url(#SVGID_00000010280281241278646330000004870101891283792534_);" d="M1289.524,2760.381
				c0,0-138.456,58.326-164.378,28.515c-25.922-29.811-11.665-196.982-11.665-196.982l-58.326-15.583
				c0,0-71.719,295.085,50.117,339.153c88.448,31.992,257.065-72.151,257.065-72.151L1289.524,2760.381z"/>
			
				<linearGradient id="SVGID_00000178171677448687768390000002023927340518649218_" gradientUnits="userSpaceOnUse" x1="1809.2856" y1="2495.9192" x2="1688.9474" y2="2616.2576">
				<stop  offset="0" style="stop-color:#4F52FF"/>
				<stop  offset="1" style="stop-color:#4042E2"/>
			</linearGradient>
			<path style="fill:url(#SVGID_00000178171677448687768390000002023927340518649218_);" d="M1419.717,2558.617
				c-22.323,4.908-46.792,26.228-65.933,46.681c-21.858,23.358-36.498,52.636-41.951,84.157c-0.178,1.027-0.355,2.056-0.531,3.086
				c-48.184,52.812-90.626,87.003-119.177,99.642c50.118,71.181,77.234,98.222,77.234,98.222s5.779-1.244,15.473-3.747
				c-9.42,84.937-14.519,150.7-14.519,150.7s97.896,97.17,216.453,124.821c107.976-79.496,124.49-306.911,124.49-306.911
				C1619.71,2585.539,1495.134,2542.036,1419.717,2558.617z"/>
			
				<linearGradient id="SVGID_00000160897459883624951620000002405406536228771467_" gradientUnits="userSpaceOnUse" x1="767.4829" y1="1773.2153" x2="852.7228" y2="2184.3713">
				<stop  offset="0" style="stop-color:#09005D"/>
				<stop  offset="1" style="stop-color:#1A0F91"/>
			</linearGradient>
			<path style="fill:url(#SVGID_00000160897459883624951620000002405406536228771467_);" d="M1486.765,3162.181
				c0,0-48.605,144.518-288.504,63.51c-116.321-39.279-279.2-267.002-279.2-267.002s-40.18,110.171-250.153,257.93l-46.66-41.908
				c0,0,212.565-366.372,321.44-328.353C1052.562,2884.377,1520.032,3068.427,1486.765,3162.181z"/>
			
				<linearGradient id="SVGID_00000119076610969536077510000012245978241130508928_" gradientUnits="userSpaceOnUse" x1="561.1806" y1="3193.9146" x2="591.4418" y2="3300.0815">
				<stop  offset="0" style="stop-color:#09005D"/>
				<stop  offset="1" style="stop-color:#1A0F91"/>
			</linearGradient>
			<path style="fill:url(#SVGID_00000119076610969536077510000012245978241130508928_);" d="M649.666,3223.199
				c-8.874,0.101-46.212-16.302-46.212-16.302l-34.779,9.289c-30.313-4.664-56.347,5.659-73.892,16.149
				c-3.832,2.291-5.673,6.855-4.518,11.169c1.155,4.314,5.029,7.339,9.494,7.414c34.327,0.569,90.697,1.142,119.249-0.567
				C661.78,3247.791,668.26,3249.021,649.666,3223.199z"/>
			
				<linearGradient id="SVGID_00000134933788153209118030000000430202298739693995_" gradientUnits="userSpaceOnUse" x1="1331.1621" y1="2798.7427" x2="1508.2726" y2="2798.7427">
				<stop  offset="0" style="stop-color:#09005D"/>
				<stop  offset="1" style="stop-color:#1A0F91"/>
			</linearGradient>
			<path style="fill:url(#SVGID_00000134933788153209118030000000430202298739693995_);" d="M1332.694,2873.968
				c-0.688,0-1.315-0.468-1.487-1.167c-0.203-0.822,0.299-1.653,1.122-1.854c0.366-0.091,37.153-9.297,76.687-31.898
				c36.366-20.79,82.581-57.506,96.231-114.355c0.197-0.824,1.028-1.331,1.849-1.133c0.823,0.199,1.33,1.026,1.133,1.849
				c-13.913,57.94-60.842,95.246-97.759,116.34c-39.901,22.797-77.038,32.083-77.41,32.175
				C1332.939,2873.955,1332.815,2873.968,1332.694,2873.968z"/>
			<g>
				<g>
					
						<linearGradient id="SVGID_00000117678321701176061300000008095334733213052310_" gradientUnits="userSpaceOnUse" x1="4654.7021" y1="1685.7583" x2="4403.3857" y2="2040.3392" gradientTransform="matrix(-0.9162 0.4006 0.4006 0.9162 4583.5337 -959.3197)">
						<stop  offset="0" style="stop-color:#09005D"/>
						<stop  offset="1" style="stop-color:#1A0F91"/>
					</linearGradient>
					<path style="fill:url(#SVGID_00000117678321701176061300000008095334733213052310_);" d="M1024.336,2441.253
						c-1.002-2.567-0.81-5.446,0.523-7.857c1.333-2.411,3.669-4.104,6.376-4.62l67.568-12.892c2.624-0.501,5.205,1.05,5.996,3.6
						l51.973,167.547c0.224,0.722,0.151,1.505-0.205,2.172c-0.355,0.667-0.963,1.166-1.688,1.383l-56.486,16.955
						c-4.627,1.389-9.544-1.008-11.301-5.508L1024.336,2441.253z"/>
					
						<linearGradient id="SVGID_00000109750274838044803980000003763674557840493977_" gradientUnits="userSpaceOnUse" x1="4637.4023" y1="1703.1591" x2="4434.9458" y2="1988.8038" gradientTransform="matrix(-0.9162 0.4006 0.4006 0.9162 4583.5337 -959.3197)">
						<stop  offset="0" style="stop-color:#FF928E"/>
						<stop  offset="1" style="stop-color:#FE7062"/>
					</linearGradient>
					<path style="fill:url(#SVGID_00000109750274838044803980000003763674557840493977_);" d="M1045.649,2442.911
						c-0.546-1.467-0.41-3.1,0.373-4.456c0.782-1.355,2.128-2.291,3.672-2.551l44.854-7.571c2.594-0.438,5.11,1.112,5.887,3.624
						l44.135,142.736c0.231,0.749,0.143,1.559-0.244,2.24c-0.388,0.681-1.039,1.171-1.801,1.354l-40.188,9.667
						c-1.394,0.335-2.819-0.423-3.319-1.766L1045.649,2442.911z"/>
					
						<linearGradient id="SVGID_00000057115026235882532370000015192096631583479725_" gradientUnits="userSpaceOnUse" x1="4463.103" y1="3567.2598" x2="4445.9038" y2="3591.5259" gradientTransform="matrix(-0.9785 0.2063 0.1084 0.5141 5051.7461 -330.1158)">
						<stop  offset="0" style="stop-color:#8D55D1"/>
						<stop  offset="0.9964" style="stop-color:#1C2873"/>
					</linearGradient>
					<path style="fill:url(#SVGID_00000057115026235882532370000015192096631583479725_);" d="M1067.283,2429.091
						c0.111,0.525,1.011,0.78,2.011,0.57l14.746-3.11c1-0.211,1.721-0.807,1.61-1.333l-0.108-0.51
						c-0.111-0.525-1.011-0.78-2.011-0.569l-14.746,3.11c-1,0.211-1.721,0.807-1.61,1.333L1067.283,2429.091z"/>
				</g>
			</g>
			
				<linearGradient id="SVGID_00000111870040828026350100000002329470742731198383_" gradientUnits="userSpaceOnUse" x1="1066.5551" y1="2588.8005" x2="1100.2545" y2="2925.7942">
				<stop  offset="0" style="stop-color:#FEBBBA"/>
				<stop  offset="1" style="stop-color:#FF928E"/>
			</linearGradient>
			<path style="fill:url(#SVGID_00000111870040828026350100000002329470742731198383_);" d="M1054.404,2579.548
				c-0.869-7.429-25.82-54.738-16.099-72.884c9.721-18.146,13.609-49.253,23.006-40.504c9.397,8.749-2.268,39.208,1.944,48.281
				c4.212,9.073,20.392,32.126,22.509,50.086c2.117,17.961,14.106,43.559-11.168,47.124S1054.404,2579.548,1054.404,2579.548z"/>
			
				<linearGradient id="SVGID_00000115473790936271958770000016451511033396745131_" gradientUnits="userSpaceOnUse" x1="1319.9753" y1="2641.8826" x2="1430.6213" y2="2641.8826">
				<stop  offset="0" style="stop-color:#09005D"/>
				<stop  offset="1" style="stop-color:#1A0F91"/>
			</linearGradient>
			<path style="fill:url(#SVGID_00000115473790936271958770000016451511033396745131_);" d="M1321.507,2686.739
				c-0.299,0-0.601-0.087-0.865-0.269c-0.699-0.479-0.876-1.433-0.397-2.13c2.86-4.171,70.493-101.929,109.441-85.442
				c0.78,0.331,1.144,1.231,0.813,2.01c-0.331,0.778-1.226,1.139-2.011,0.814c-36.656-15.555-105.031,83.349-105.716,84.351
				C1322.476,2686.506,1321.995,2686.739,1321.507,2686.739z"/>
			<path style="fill:#F8A570;" d="M1169.539,2595.362c-0.476,0-0.946-0.22-1.245-0.637c-11.832-16.403-4.363-35.112-1.174-43.1
				c0.396-0.992,0.837-2.098,0.984-2.616c-1.446-3.24-7.095-19.831-5.372-30.175c0.399-2.386,1.637-3.115,2.604-3.306
				c5.322-1.039,16.887,16.527,21.599,24.137c0.446,0.72,0.223,1.665-0.496,2.11c-0.721,0.45-1.665,0.223-2.11-0.497
				c-7.681-12.406-16.026-22.743-18.343-22.743c-0.01,0-0.018,0-0.026,0c0.012,0.039-0.112,0.26-0.201,0.801
				c-1.65,9.9,4.363,27.055,5.22,28.584c0.543,0.949,0.152,1.93-1.009,4.839c-3.003,7.522-10.033,25.134,0.813,40.171
				c0.495,0.687,0.34,1.645-0.347,2.14C1170.164,2595.268,1169.85,2595.362,1169.539,2595.362z M1168.312,2549.437l0.001,0.003
				L1168.312,2549.437z"/>
		</g>
	</g>
</g>
</svg>
